HIERARCHY
ROOT Hips
{
	OFFSET 0.00000 0.00000 0.00000
	CHANNELS 6 Xposition Yposition Zposition Zrotation Yrotation Xrotation 
	JOINT LHipJoint
	{
		OFFSET 0 0 0
		CHANNELS 3 Zrotation Yrotation Xrotation
		JOINT LeftUpLeg
		{
			OFFSET 1.86795 -1.59681 0.65681
			CHANNELS 3 Zrotation Yrotation Xrotation
			JOINT LeftLeg
			{
				OFFSET 2.30491 -6.33268 0.00000
				CHANNELS 3 Zrotation Yrotation Xrotation
				JOINT LeftFoot
				{
					OFFSET 2.46780 -6.78022 0.00000
					CHANNELS 3 Zrotation Yrotation Xrotation
					JOINT LeftToeBase
					{
						OFFSET 0.07897 -0.21698 1.59652
						CHANNELS 3 Zrotation Yrotation Xrotation
						End Site
						{
							OFFSET 0.00000 -0.00000 0.82310
						}
					}
				}
			}
		}
	}
	JOINT RHipJoint
	{
		OFFSET 0 0 0
		CHANNELS 3 Zrotation Yrotation Xrotation
		JOINT RightUpLeg
		{
			OFFSET -1.93650 -1.59681 0.65681
			CHANNELS 3 Zrotation Yrotation Xrotation
			JOINT RightLeg
			{
				OFFSET -2.29410 -6.30299 0.00000
				CHANNELS 3 Zrotation Yrotation Xrotation
				JOINT RightFoot
				{
					OFFSET -2.48738 -6.83403 0.00000
					CHANNELS 3 Zrotation Yrotation Xrotation
					JOINT RightToeBase
					{
						OFFSET -0.08699 -0.23899 1.89395
						CHANNELS 3 Zrotation Yrotation Xrotation
						End Site
						{
							OFFSET -0.00000 -0.00000 0.96904
						}
					}
				}
			}
		}
	}
	JOINT LowerBack
	{
		OFFSET 0 0 0
		CHANNELS 3 Zrotation Yrotation Xrotation
		JOINT Spine
		{
			OFFSET 0.03629 1.99740 -0.07548
			CHANNELS 3 Zrotation Yrotation Xrotation
			JOINT Spine1
			{
				OFFSET 0.03970 1.94298 0.17218
				CHANNELS 3 Zrotation Yrotation Xrotation
				JOINT Neck
				{
					OFFSET 0 0 0
					CHANNELS 3 Zrotation Yrotation Xrotation
					JOINT Neck1
					{
						OFFSET -0.05054 1.79469 0.04241
						CHANNELS 3 Zrotation Yrotation Xrotation
						JOINT Head
						{
							OFFSET 0.05195 1.78475 -0.22133
							CHANNELS 3 Zrotation Yrotation Xrotation
							End Site
							{
								OFFSET 0.02420 1.80711 -0.07950
							}
						}
					}
				}
				JOINT LeftShoulder
				{
					OFFSET 0 0 0
					CHANNELS 3 Zrotation Yrotation Xrotation
					JOINT LeftArm
					{
						OFFSET 2.92134 1.19850 0.36056
						CHANNELS 3 Zrotation Yrotation Xrotation
						JOINT LeftForeArm
						{
							OFFSET 4.84137 -0.00000 0.00000
							CHANNELS 3 Zrotation Yrotation Xrotation
							JOINT LeftHand
							{
								OFFSET 3.24520 -0.00000 -0.00000
								CHANNELS 3 Zrotation Yrotation Xrotation
								JOINT LeftFingerBase
								{
									OFFSET 0 0 0
									CHANNELS 3 Zrotation Yrotation Xrotation
									JOINT LeftHandIndex1
									{
										OFFSET 0.52122 -0.00000 0.00000
										CHANNELS 3 Zrotation Yrotation Xrotation
										End Site
										{
											OFFSET 0.42022 -0.00000 0.00000
										}
									}
								}
								JOINT LThumb
								{
									OFFSET 0 0 0
									CHANNELS 3 Zrotation Yrotation Xrotation
									End Site
									{
										OFFSET 0.42664 -0.00000 0.42664
									}
								}
							}
						}
					}
				}
				JOINT RightShoulder
				{
					OFFSET 0 0 0
					CHANNELS 3 Zrotation Yrotation Xrotation
					JOINT RightArm
					{
						OFFSET -2.84327 1.20795 0.50191
						CHANNELS 3 Zrotation Yrotation Xrotation
						JOINT RightForeArm
						{
							OFFSET -4.72284 -0.00000 0.00000
							CHANNELS 3 Zrotation Yrotation Xrotation
							JOINT RightHand
							{
								OFFSET -3.23459 -0.00000 0.00000
								CHANNELS 3 Zrotation Yrotation Xrotation
								JOINT RightFingerBase
								{
									OFFSET 0 0 0
									CHANNELS 3 Zrotation Yrotation Xrotation
									JOINT RightHandIndex1
									{
										OFFSET -0.30742 -0.00000 0.00000
										CHANNELS 3 Zrotation Yrotation Xrotation
										End Site
										{
											OFFSET -0.24785 -0.00000 0.00000
										}
									}
								}
								JOINT RThumb
								{
									OFFSET 0 0 0
									CHANNELS 3 Zrotation Yrotation Xrotation
									End Site
									{
										OFFSET -0.25163 -0.00000 0.25163
									}
								}
							}
						}
					}
				}
			}
		}
	}
}
MOTION
Frames: 9
Frame Time: 0.0186916
0.00 0.00 0.00 -520.7910 -111.4190 -1250.9900 0.0000 0.0000 0.0000 -24.4816 -12.4889 -2.4034 7.4705 15.7156 50.6320 5.7491 18.9136 44.1526 4.9453 13.3219 40.5856 0.0000 0.0000 0.0000 8.5511 13.1686 -57.6572 -5.9972 -14.4256 44.9704 -0.2479 -9.0588 10.1823 -2.2684 9.4041 -27.0678 2.9692 -3.1804 7.2636 0.2250 -3.9469 -2.4490 -0.9063 -2.0607 -6.8287 -4.3443 2.8132 -4.7103 -2.2069 4.1498 4.5729 0.1761 1.9141 2.2019 0.0000 0.0000 0.0000 -92.0282 38.7132 40.2101 25.1152 -36.3215 -8.3581 -0.0000 0.0000 -37.2182 -70.9312 35.3634 -59.1517 -7.1250 0.0000 -0.0000 -86.1856 48.1729 -21.8384 0.0000 0.0000 0.0000 82.0570 -38.7795 47.7956 -32.3205 42.8012 -12.9580 0.0000 -0.0000 -72.7633 31.4491 -7.3834 -4.4938 7.1250 -0.0000 -0.0000 43.5660 -33.0885 17.5694
0.00 0.00 0.00 -536.6800 -117.3770 -1237.7900 0.0000 0.0000 0.0000 -10.5982 -17.4409 -36.1080 29.0545 17.9083 117.3956 5.6723 7.7942 44.0017 4.1363 12.3397 36.9444 0.0000 0.0000 0.0000 16.4848 15.1123 -60.7732 -12.8663 -18.7334 68.7097 0.8072 -16.2437 -10.6731 -1.2767 7.1609 -20.1929 8.8218 -1.1930 17.9782 0.7936 0.3506 -0.6393 -4.2319 -0.3219 -10.8226 -5.5950 2.2174 -7.8220 -2.5297 3.5977 2.4624 0.2993 1.6451 2.0627 -0.0000 0.0000 0.0000 -89.7279 30.2452 36.9339 21.0989 -31.9436 -6.1022 -0.0000 0.0000 -24.7444 -70.1156 35.6253 -58.1622 -7.1250 0.0000 -0.0000 -86.4005 48.3055 -22.6049 -0.0000 0.0000 0.0000 78.5623 -35.0511 60.5445 -28.5242 39.5943 -10.4561 0.0000 -0.0000 -78.3398 26.7402 -4.5767 -2.3022 7.1250 -0.0000 -0.0000 39.9028 -31.5009 17.1919
0.00 0.00 0.00 -537.9660 -122.3460 -1236.8300 0.0000 0.0000 0.0000 -8.3650 -18.1234 -58.5966 30.1798 17.3075 121.1143 1.9799 2.9644 25.8530 4.3320 12.5895 37.8507 0.0000 0.0000 0.0000 19.9227 16.1644 -58.4177 -13.8162 -19.0573 71.6424 1.6428 -22.7084 -14.9482 -0.9301 6.1437 -17.2021 9.7785 -0.7455 21.1177 -0.0072 1.3855 -0.2433 -6.0257 0.0226 -11.9710 -5.0394 1.1129 -7.9184 -1.4944 1.9812 0.7692 0.4574 0.9187 1.5465 -0.0000 -0.0000 0.0000 -87.4303 29.5931 37.3282 21.8200 -32.7730 -6.4881 -0.0000 0.0000 -23.0289 -67.6694 35.8808 -54.9762 -7.1250 0.0000 -0.0000 -85.8108 48.5640 -22.9515 -0.0000 -0.0000 0.0000 79.7187 -34.8911 61.3680 -28.9466 39.9732 -10.7264 0.0000 -0.0000 -79.1936 22.6435 -5.6320 -2.3443 7.1250 -0.0000 -0.0000 37.9753 -32.9824 14.0365
0.00 0.00 0.00 -537.6310 -126.5420 -1238.2000 0.0000 0.0000 0.0000 -9.0338 -22.3929 -72.3122 25.2245 19.3326 105.4405 0.6078 -0.9029 15.0815 5.0812 13.4746 41.1721 0.0000 0.0000 0.0000 23.2901 14.3788 -53.0342 -13.7458 -19.0351 71.4267 1.8771 -24.9668 -19.2014 -0.6634 5.2090 -14.5057 8.8452 0.2185 22.7693 -0.1969 2.5298 0.2086 -6.1104 0.5947 -12.1951 -5.8190 0.2116 -7.7423 -0.3779 0.8148 0.9010 0.9034 0.3587 1.5806 -0.0000 0.0000 0.0000 -86.6915 29.3023 37.1632 23.2576 -34.3692 -7.2832 -0.0000 0.0000 -20.9724 -67.6451 32.7646 -52.7687 -7.1250 0.0000 -0.0000 -78.7045 47.1381 -11.2012 -0.0000 0.0000 0.0000 79.4731 -34.5607 63.4461 -28.6875 39.7415 -10.5603 0.0000 -0.0000 -79.2910 20.0728 -5.4837 -1.9999 7.1250 -0.0000 -0.0000 36.3098 -33.1564 12.9119
0.00 0.00 0.00 -537.4290 -127.7750 -1238.5500 0.0000 0.0000 0.0000 -10.6399 -23.0156 -76.0475 19.8389 19.9994 89.5291 0.5242 -2.4450 14.7842 3.0443 10.7664 31.4960 0.0000 0.0000 0.0000 25.5243 12.6913 -47.5294 -12.3106 -18.5189 66.9699 1.9667 -25.3239 -18.9941 -0.8142 5.7579 -16.0836 7.1261 1.3934 22.2754 -0.4942 3.5392 0.3406 -5.7429 1.1890 -11.6717 -5.6861 -0.2834 -7.3501 0.4910 0.0926 0.7660 1.1293 0.0241 1.4925 -0.0000 -0.0000 0.0000 -85.5492 29.9538 38.8506 25.2820 -36.4909 -8.4571 -0.0000 0.0000 -18.7458 -68.3874 31.6089 -52.9143 -7.1250 0.0000 -0.0000 -76.0489 46.3240 -6.4833 -0.0000 -0.0000 0.0000 79.7069 -34.1244 63.6178 -27.9542 39.0741 -10.0948 0.0000 -0.0000 -78.8234 18.8850 -5.4083 -1.8467 7.1250 -0.0000 -0.0000 35.5132 -33.2186 12.4289
0.00 0.00 0.00 -547.2640 -125.9390 -1228.0600 0.0000 0.0000 0.0000 -11.7538 -19.4122 -65.9334 2.8897 10.5143 30.6586 -1.7012 35.2405 16.5639 5.3823 13.8018 42.4492 0.0000 0.0000 0.0000 33.7279 11.2825 -16.7490 -1.8703 -8.5905 24.5226 -2.0212 -5.8034 25.6788 -4.5549 12.8643 -38.8626 1.3128 4.6782 14.1203 -1.8640 6.2272 0.3516 -3.9478 2.9341 -7.1677 -3.8595 0.3567 -7.9171 4.1426 0.6683 2.3809 2.0386 0.4109 2.1144 0.0000 -0.0000 0.0000 -83.6237 29.0777 37.5079 29.6400 -40.5828 -11.1747 -0.0000 0.0000 -10.2866 -68.7637 30.2691 -52.3698 -7.1250 0.0000 -0.0000 -72.7109 45.1882 -0.8413 0.0000 -0.0000 0.0000 83.5301 -32.3654 59.1557 -25.0357 36.2405 -8.3110 0.0000 -0.0000 -75.4031 19.5779 -6.0611 -2.1506 7.1250 -0.0000 -0.0000 36.2173 -33.7083 12.2417
0.00 0.00 0.00 -561.5910 -126.6780 -1213.2100 0.0000 0.0000 0.0000 -3.1081 -19.5441 -64.8460 2.9766 10.6571 31.1320 -4.4678 42.4753 11.1003 6.5264 14.9198 47.0595 0.0000 0.0000 0.0000 33.9628 11.2248 -19.3867 -4.6469 -12.9748 39.2743 -2.2754 4.8054 30.5204 -1.3284 7.2988 -20.6037 5.0287 4.0935 8.0084 -0.6640 5.8881 -0.4928 -4.1627 2.7844 -4.4180 -1.8861 2.8107 -7.9134 4.0399 3.7657 1.8195 1.7582 1.9695 1.8190 0.0000 -0.0000 0.0000 -82.2261 30.7421 42.1327 29.8385 -40.7546 -11.3041 -0.0000 0.0000 -14.3215 -70.0347 25.4797 -49.8198 -7.1250 0.0000 -0.0000 -60.4679 38.6058 20.2475 0.0000 -0.0000 0.0000 80.8753 -36.0122 58.0787 -28.4908 39.5642 -10.4348 0.0000 -0.0000 -74.5070 25.0113 -5.2720 -2.4547 7.1250 -0.0000 -0.0000 39.2285 -32.3589 15.5896
0.00 0.00 0.00 -558.7640 -125.5600 -1221.5900 0.0000 0.0000 0.0000 -19.0388 -9.7814 -60.9173 7.6677 15.8693 51.3566 0.1169 10.6656 9.1852 0.5051 4.5558 12.6459 0.0000 0.0000 0.0000 19.5216 12.5189 -35.2423 -24.9539 -19.4012 104.6243 -5.6106 5.4315 46.8423 -0.0214 0.9450 -2.5976 -1.7112 2.4088 15.4369 -0.8012 2.7717 0.7081 -0.4951 1.3643 -7.9493 -0.2294 5.4573 -8.2563 4.3606 7.2231 -1.5267 1.6112 3.6738 0.7287 -0.0000 0.0000 0.0000 -85.0755 28.9354 42.5084 25.8721 -37.0821 -8.8104 -0.0000 0.0000 -18.1980 -70.1024 29.5926 -53.7608 -7.1250 0.0000 -0.0000 -71.0114 44.4258 2.4689 -0.0000 0.0000 0.0000 83.8182 -37.5154 47.6833 -32.4763 42.9236 -13.0640 0.0000 -0.0000 -73.5457 25.2655 -5.7559 -2.7100 7.1250 -0.0000 -0.0000 39.5780 -32.7385 15.3164
0.00 0.00 0.00 -546.3070 -138.5130 -1233.8900 0.0000 0.0000 0.0000 -25.0595 -12.0355 -54.4534 12.0366 18.4061 66.1046 0.0154 -1.4325 3.3150 0.2496 -3.2147 -8.8771 0.0000 0.0000 0.0000 4.9754 24.6879 -71.1232 -28.3545 -18.2368 115.1392 -2.7102 4.7122 33.0307 -0.0014 -0.2390 0.6568 -5.5884 0.0738 19.5913 0.2743 -1.1388 1.6277 3.7983 -0.3364 -9.1053 -0.0368 5.7283 -8.2279 3.4074 7.6281 -3.1353 1.2482 3.8449 0.2474 0.0000 -0.0000 0.0000 -86.1312 31.8043 49.2988 27.9754 -39.0936 -10.1082 -0.0000 0.0000 -31.4098 -62.0087 35.5640 -47.5770 -7.1250 0.0000 -0.0000 -82.7428 48.9645 -21.2990 0.0000 -0.0000 0.0000 79.7667 -35.5689 46.2335 -34.8669 44.7169 -14.7197 0.0000 -0.0000 -69.6179 28.4881 -4.6974 -2.5447 7.1250 -0.0000 -0.0000 40.8765 -31.3163 18.1806
